<?xml version="1.0" encoding="utf-8"?>
<!-- Generator: Adobe Illustrator 24.2.3, SVG Export Plug-In . SVG Version: 6.00 Build 0)  -->
<svg version="1.1" id="Capa_1" xmlns="http://www.w3.org/2000/svg" xmlns:xlink="http://www.w3.org/1999/xlink" x="0px" y="0px"
	 viewBox="0 0 1000 522.6" style="enable-background:new 0 0 1000 522.6;" xml:space="preserve">
<style type="text/css">
	.st0{fill:none;stroke:#1D1E1C;stroke-width:0.3;stroke-miterlimit:10;stroke-dasharray:1,1;}
	.st1{fill:#1E1E1C;}
	.st2{font-family:'RobotoCondensed-Regular';}
	.st3{font-size:18px;}
	.st4{fill:#E6E2D1;}
	.st5{fill:#6DB159;}
	.st6{fill:none;stroke:#1D1E1C;stroke-width:0.3;stroke-miterlimit:10;}
	.st7{opacity:0;}
	.st8{fill:#807973;}
	.st9{font-size:16px;}
</style>
<line class="st0" x1="7.4" y1="306.6" x2="992.8" y2="306.6"/>
<line class="st0" x1="7.4" y1="153.3" x2="992.8" y2="153.3"/>
<text id="Hipopotamo_comun" transform="matrix(0.9839 0 0 1 312.4956 484.2202)"><tspan x="0" y="0" class="st1 st2 st3">Hipopótamo </tspan><tspan x="19.7" y="21.6" class="st1 st2 st3">común</tspan></text>
<g id="Hipopotamo_pigmeo">
	<text transform="matrix(0.9839 0 0 1 793.3662 484.2202)"><tspan x="0" y="0" class="st1 st2 st3">Hipopótamo </tspan><tspan x="17.4" y="21.6" class="st1 st2 st3">pigmeo</tspan></text>
</g>
<g id="Cria_pigmeo">
	<text transform="matrix(0.9839 0 0 1 571.5049 484.2202)"><tspan x="0" y="0" class="st1 st2 st3">Cría </tspan><tspan x="-14.2" y="21.6" class="st1 st2 st3">pigmeo </tspan></text>
</g>
<text id="Humano_promedio" transform="matrix(0.9839 0 0 1 66.9473 484.2202)"><tspan x="0" y="0" class="st1 st2 st3">Humano </tspan><tspan x="-3.8" y="21.6" class="st1 st2 st3">promedio</tspan></text>
<path id="El_hipo_comun" class="st4" d="M908.4,377.1c-1.6-11.6,0.8-23.5-3.8-34.7c-1.5-3.7-0.3-6.3,2.4-9.2
	c17.7-19,27.1-41.2,27.5-67.5c0.2-17-4.9-32.4-11.1-47.8c-12.3-30.6-30.2-56.5-59.1-74c-16.4-9.9-33.7-18.1-50.6-27.1
	c-23.2-12.3-47.9-17.2-73.9-17.4c-30.9-0.3-61.7,1.4-92.5,3.2c-10.4,0.6-20.7,1.3-31.1,2.2c-15.8,1.4-31.6,2.8-47.4,2.3
	c-24.1-0.8-48.2-0.5-72.3-0.6c-7.4,0-14.8,0.6-22.2,1.5c-13,1.6-25.5,5.4-38.2,8.3c-13.9,3.3-28.3,5.5-40.4,14.2
	c-1,0.7-2.6,1.1-3.8,0.9c-8.1-1.5-14.9,1.6-21.7,5.3c-33.3,18.1-65.7,38.1-100.6,53.3c-8.9,3.8-16.4,9.8-22.1,17.9
	c-2.3,3.3-5.6,5.6-8.5,8.3c-2,1.8-3.1,1.8-4.3-0.8c-1.9-3.9-4.8-3.4-7.7-1c-2.2,1.8-3.3,4.3-3.6,6.9c-1.2,10-5.7,18-13,24.8
	c-0.8,0.8-1.5,1.8-2,2.8c-4.3,9.9-11,17.3-20.8,22.2c-5.3,2.6-7.4,7.5-6.9,13.7c0.5,6,3.1,11.1,6.4,15.8c2.6,3.6,2.3,6.6,0.5,10.4
	c-7.2,15.4-14.9,30.5-21,46.4c-3.6,9.3-8,18.8-17.2,24.8c-4.5,2.9-5.5,7.8-4.9,13.2c1.4,11.7,6.1,21.7,14.3,30.3
	c14.4,15.1,29.9,26.4,52.3,18c0.6-0.2,1.3-0.3,1.9-0.4c8.7-1.7,15.3-6.8,21-13.2c3.2-3.6,6.1-7.3,9.1-11.1c1.5-1.9,3.2-3.5,5.5-4
	c3.6-0.8,6.1-3,8.5-5.6c3.6-3.8,7.6-7.4,11.1-11.3c5.7-6.4,12.8-9.6,21.3-10.1c7.3-0.5,14-2.2,18.9-8.3c1.3-1.7,3.4-2.1,5.3-2.3
	c11.7-1.2,20.3-7.4,27.1-16.4c1.7-2.3,3.2-2.9,6.2-2.2c9,2.3,16.6-0.8,20-8.5c2.2-5,3.3-9.7,9.7-4.3c0.4,0.4,1.3,0.4,1.9,0.4
	c3,0.1,3.6,1.9,3.3,4.4c-0.8,6.9-0.9,13.9-2.5,20.6c-2.6,10.3-5.7,20.5-7.9,30.9c-0.9,4.4-3.7,7.7-7,10.6
	c-9.7,8.3-19.8,15.9-31.6,21.1c-5.1,2.2-9.7,5-12.2,10.3c-0.7,1.5-1.3,3.4-1,4.9c24.4,0.2,48.9,0.4,73.4,0.4c0.7-1,1.4-1.9,2-2.9
	c7.3-12.5,12.5-26.3,22.2-37.4c4-4.6,7.1-9.9,9.7-15.5c4.3-8.9,8.5-17.9,12.8-26.8c3.1-6.4,5.7-7.2,11.5-3.1
	c5.4,3.8,10.9,7.7,15.4,12.4c9,9.4,16.5,19.7,13.7,34.2c-1.1,5.5-3.4,16.4-8.7,17.7c-3.4,0.8-6.7,1.8-10,2.8
	c-3.8,1.2-6.5,3.8-8.1,7.5c-2.9,6.6-2.1,9.9,3.1,11.2h53.4c0.2-0.2,0.4-0.5,0.6-0.7c5-7.5,7-23.4,4.2-32.1
	c-1.4-4.3-2.4-8.4-0.8-12.5c3.2-8.3,2.2-16.5,0.5-24.8c-0.9-4.2,0.3-5.2,4.5-4.5c9.2,1.5,18.2,3.5,26.8,7.1
	c21.6,9.1,44.2,12.9,67.3,15.1c26.5,2.6,52.7,2.3,78.8-3.1c11.6-2.4,23.2-5,36.1-7.8c-4.5,8.2-9.1,29.3-14.1,35.8
	c-5.1,6.8-11.7,9.8-20.3,8.1c-5-1-14,4.5-15.7,9.2c-0.5,1.4,0.2,2.4,0.6,3.7c1.3,3.8,3.5,5.7,6.4,6.7h61.9c0.6-0.5,1.1-1.2,1.5-2
	c6.2-12.8,15.1-37.3,27.7-44.3c3.5-2,6.1-5.5,8.4-8.9c4.8-7.1,9.2-14.6,12.7-22.4c2.7-6.1,6.5-10,13.2-11.2c3.5-0.6,6.7-3.5,10.4-2
	c7.5,3.1,15.5,4.7,23.2,7.2c8.1,2.7,13.4,7.5,16.9,15.3c4.6,10.5,4.8,21.4,5.1,32.5c0.1,5.8-2.4,11.7-6.8,14.6
	c-1.5,1-3.2,1.8-4.8,2.7c-3.8,2.1-5.8,5.1-6.7,9.6c-1,5.1-1.1,7.6-0.2,8.8c19.4,0.1,38.9,0.1,58.3,0.3c1.7-2.9,2.5-6.1,2-9.9
	c-0.7-5.7-2.3-13.9-0.9-19.6C910.5,406,910.4,391.5,908.4,377.1z"/>
<path id="El_hipo_pigmeo" class="st5" d="M951.4,442c1.8-9.4,7.6-51.7,7.6-51.7c-0.9-5.7-8.8-15.4-8.8-15.4L961,350
	c14.2-21.5-1.8-50.2-1.8-50.2c-9.1-14.8-26.9-27.8-26.9-27.8c-18.2-13.6-59.3-13.3-59.3-13.3c-35.4-1.2-71.1,7.6-71.1,7.6
	c-29.4,3.6-55.7,10.6-55.7,10.6c-19.4-3.3-45.7,4.5-45.7,4.5c-7.6-0.7-13.7,6-13.7,6c-6.9,0-12.4,3-12.4,3
	c-5.9,1.4-13.5,8.1-13.5,8.1c-9.6,4.5-15.5,16.7-15.5,16.7c-4.8,7.6-16.7,14.7-16.7,14.7c-0.3,1-2.1,4.3-2.1,4.3
	c-3.2,8.8,4.1,19.2,4.1,19.2c2.1,2.3,4.9-0.9,4.9-0.9c1.9,3.5,9.6,3.2,9.6,3.2l-1.3,1.9c-3.6,0.9-3.3,7-3.3,7
	c2.7,7.3,16.9,7.6,16.9,7.6c7.3,0.3,17.2-8.2,17.2-8.2c9.7-5.7,20.6-4.8,20.6-4.8c9.7,4.2,14.5-0.9,14.5-0.9l6.1,1.2
	c4.8,2.4,14.2,1.8,14.2,1.8l2.7,5.1c4.8,6.1,11.5,2.4,11.5,2.4s-2.7,13.6-2.7,13.6c-2.4,4.2-3.3,9.3-4.3,13.9
	c-1.4,6.5-1.4,13.1-5.2,18.8c-3.4,5.1-5.2,9.7-6.1,15.7c-0.1,0.6-1.2,9.2-0.9,9.2c-8.5-0.5-17.9,5.3-18.7,9.8h41.4l9.8-36.8
	c5.4-4.5,21.2-26,21.2-26c9.7,6.1,25.7,21.2,25.7,21.2l6.1,11.2c2.7,11.5-1.5,20.8-1.5,20.8c-16.5,0-17.5,8.5-18.7,9.6h37.7
	c-0.9-6.3-1.1-38.9-1.1-38.9l-10.6-26.3c58.1,16.3,78.1-0.3,78.1-0.3c8.8-4.5,16-0.3,16-0.3c11.5,5.4,23.6,25.1,23.6,25.1l-3.2,30.8
	c-0.1,0.9-9.5,1.5-11.2,9.9h30.3L951.4,442z"/>
<path id="La_cria" class="st5" d="M618.1,449.7c1.1-0.9,1.9-2.2,2.3-2.6c0.6-0.6,4.3-5.6,4.3-5.6c1.2-0.7,4.4-6,4.4-6
	c5.1-8,5-14.8,5-16.1c0-1.4-0.7-3.5-0.7-3.5c5.4-6.7,7.2-16.6,7.2-16.6l-0.1,4.7c-0.4,2.3-2.1,3.5-2.1,3.5c0,1.8,1.6,1.1,1.6,1.1
	l1.9-2c0.9-1.2,1.6-5.5,1.6-5.5c1.1-4.8-0.9-9.8-0.9-9.8c-2-7.2-17.3-16.6-17.3-16.6c-21.4-9.2-46.5-0.4-46.5-0.4
	c-13.8,2.8-22.3,12.8-22.3,12.8c-5.6,5.8-8.8,9.9-8.8,9.9c-4.6,4.2-9,11.7-9,11.7c-1,2-2.2,1.9-2.2,1.9c-0.4-4.2-2.3-3.1-2.3-3.1
	c-0.9,1.3-0.9,6.1-0.9,6.1s-1.7,2.4-2.8,4.3c-1.1,1.9-1.9,4.6-1.9,4.6c-1.6,5.5,0,11.8,0,11.8c-1.4,3.8-0.5,9-0.5,9
	c1.8,4.7,4.4,5.9,4.4,5.9c1.6,1.4,7.2,0.2,7.2,0.2c0.6,0.7,4.6,0.6,6,0.4s7.7-9.1,7.7-9.1c5-4.9,9-11.4,9-11.4c4-2,4-6.4,4-6.4
	c1.4-1.5,3.9-0.5,3.9-0.5c1.9,0.5,2.2,6.6,2.2,6.6c0.6,3.6,1.8,5.9,1.8,5.9c0.3,3.4-0.9,5.8-0.9,5.8c-0.3,3.7-6.2,5.9-6.2,5.9
	c-3.4,2.4-0.6,3.1-0.6,3.1c0.7,0.2,2.2,0.1,2.2,0.1c0,0,0,0.1,0,0.1h9.5h0.8h5.3c0.1-0.3,0.1-0.5,0.1-0.5c0.1-1.8,0.7-3.7,0.7-3.7
	c4.1-1.4,4.1-7.4,4.1-7.4c0.7-1.9-1-10.8-1-10.8c3.9-2.5,12.2-1.6,12.2-1.6c3.7,0.9,12.9-0.1,12.9-0.1c2.1,1,1.1,6,1.1,6
	c-0.8,3.2-5.9,12.7-5.9,12.7c-1.5,0.3-6.3,1.8-6.3,1.8c-3.8,2.7,0.7,3.2,0.7,3.2L618.1,449.7z"/>
<path id="El_humano" class="st4" d="M98,259c-0.6,7-1.1,13.9-1.7,20.9c-1.2,14.8-2.2,29.6-3.6,44.3c-0.3,2.8-1.6,5.5-2.1,8.3
	c-0.5,2.9-1.4,6-0.9,8.8c2.7,13.6,3.3,27.1,1.8,41.1c-1.7,16.2-1.3,35.9,1.4,52.1c0.5,3.1,0.5,6.4,0.4,9.6c-0.1,3.3-2.2,5.5-5.4,5.6
	c-5.6,0.2-11.2,0.1-16.9-0.2c-1.3-0.1-3.5-1.2-3.7-2.2c-0.3-1.1,0.9-3,2-3.9c2-1.7,4.4-2.9,6.6-4.4c2.4-1.6,3.8-3.7,2.6-6.7
	c-0.3-0.8-0.5-1.9-0.3-2.7c1.5-6.7-0.6-16-2.9-22c-6.1-15.5-10.7-31.3-11.7-48c-0.4-6.9,0.2-13.8,2.7-20.4c0.6-1.5,0.7-3.1,0.7-4.7
	c0.3-11-1.4-21.6-3.5-32.4c-4.3-21.6-7.1-43.3-2.7-65.4c4.4-22.2,3.9-44.6,0.8-66.9c-0.1-1-0.3-2-0.5-3.1c0-0.2-0.2-0.4-0.7-1.1
	c-1.3,3.8-2.3,7.2-3.5,10.6c-1.9,5.2-3.1,10.2-2.9,16c0.3,12.6-3.9,24.4-7.5,36.3c-0.3,1-0.6,2-1,2.9c-2.3,6.2-4.2,12.2-1.6,19.2
	c1.8,4.8,1.6,10.4,2.2,15.6c0.1,1.1-0.3,2.3-0.4,3.4c-0.4,0.1-0.8,0.2-1.2,0.3c-1.7-2.9-3.5-5.8-5.2-8.7c-0.3,0.1-0.7,0.2-1,0.3
	c-1,3.8,0.8,7.4,2.3,10.6c1.6,3.4,4.1,6.3,5.8,10.1c-0.8-0.2-1.7-0.3-2.4-0.7c-7.3-4.7-12.7-10.9-14.2-19.7c-0.4-2.4,0.1-5,0.2-7.6
	c0.2-13,0.2-25.9,0.7-38.9c0.2-6.3,0.5-12.8,2.3-18.7c2.1-7.3,2.4-14.6,3.2-21.9c0.8-7.8,2.8-15.5,4.3-23.3c0.4-2,0.8-4,1-6
	c0.9-6.2,1-12.7,2.7-18.7c2.5-9.1,8.5-14.6,17.9-17.7c7.5-2.5,14.2-7.6,21.1-11.9c1.2-0.8,1.6-2.9,2.3-4.5c0.2-0.4-0.1-1.1-0.3-1.6
	c-2.1-4.8-4.5-9.5-6.1-14.4c-0.7-2.1,0.2-4.8,0.3-7.2c0.1-1.9,0.2-3.9,0.1-5.8c-0.5-6.6,0.4-12.3,7-15.9c6.6-3.6,13.2-4.2,20.1-1.2
	c6.7,2.9,10.1,7.8,9.5,15.4c-0.3,3.2,0.6,6.4,0.8,9.7c0.1,1.2,0.2,2.6-0.2,3.8c-2,5.2-4.5,10.2-6.1,15.5c-0.5,1.8,0.6,5.4,2.1,6.4
	c7.5,4.7,14.5,10.5,23.5,12.6c8.4,1.9,13.2,8.1,15.7,15.9c1.4,4.3,2.4,8.9,2.6,13.5c0.2,6.1,1.7,11.9,2.9,17.9
	c1.6,7.7,2.1,15.6,3.1,23.4c0.4,3.4,0.5,6.9,1.5,10.1c2.6,8.9,4.1,17.9,3.7,27.2c-0.1,3.2,0.4,6.4,0.5,9.6
	c0.2,10.8,0.5,21.6,0.6,32.3c0,1.7-0.1,3.5-0.7,5.1c-2.8,7-7,12.8-13.7,16.7c-0.5,0.3-1.1,0.4-1.6,0.6c-0.2,0.1-0.4-0.1-1.5-0.4
	c4.8-6.1,9.5-12.2,8.9-20.2c-0.3-0.2-0.7-0.4-1-0.6c-1.8,2.9-3.6,5.9-5.4,8.8c-0.4-0.1-0.8-0.3-1.2-0.4c0-1.8-0.2-3.7,0-5.5
	c1.1-6.9,2.5-13.7,3.6-20.6c0.2-1.4-0.3-2.9-0.7-4.3c-3.4-11.9-7.1-23.8-10-35.8c-1.2-5.2-0.6-10.9-0.8-16.4c0-0.3,0.2-0.7,0.1-1
	c-2.1-6.4-4.2-12.7-6.4-19.1c-0.3,0-0.7,0-1,0.1c-0.7,5.5-1.3,11-2,16.5c-2.3,17.6-1,35.1,2.1,52.5c3.7,20.5,2,40.7-1.6,61
	c-1.8,9.9-3.2,19.9-4.6,29.9c-0.9,6.4,1,12.4,2.4,18.6c2.7,11.8,0.8,23.6-2.2,35.1c-2.5,9.5-5.9,18.8-9,28.2
	c-1.9,5.7-3.9,14.6-2.4,20.8c0.1,0.4,0.1,1,0,1.4c-2,5,0.8,7.4,4.6,9.6c2,1.1,3.9,2.5,5.5,4.1c2,2.1,1.3,4.5-1.5,4.7
	c-6.4,0.4-12.8,0.5-19.2,0.2c-3-0.1-4.5-2.8-4.4-5.7c0.2-4.8,0.5-9.6,1-14.4c2-16.5,2.2-36.3,0.2-52.8c-1.3-10.4-0.4-20.7,1.8-30.8
	c1.1-5.2,0.7-10.1-0.6-15.2c-1.7-6.6-2.4-13.5-3-20.4c-1.4-16.5-2.5-33-3.8-49.5c0-0.5-0.2-1.1-0.3-1.6C98.4,259,98.2,259,98,259z"
	/>
<line class="st6" x1="7.4" y1="449.7" x2="992.8" y2="449.7"/>
<g id="alturas_1_" class="st7">
	<text transform="matrix(0.9839 0 0 1 815.9002 247.2161)" class="st8 st2 st9">80 cm</text>
	<text transform="matrix(0.9839 0 0 1 553.7244 360.2218)" class="st8 st2 st9">35 cm</text>
	<text transform="matrix(0.9839 0 0 1 517.4824 92.6482)" class="st8 st2 st9">160 cm</text>
	<text transform="matrix(0.9839 0 0 1 75.6389 31.3296)" class="st8 st2 st9">170 cm</text>
</g>
</svg>
